:SAMPLES-PER-SECOND 30
:FULLY-SPECIFIED
:DEGREES
767
root  -9.27708 39.207 -0.393899 -1.37088 54.8761 -0.348663
RightUpLeg  3.67469 3.40828 -0.0611096
RightLeg  16.7782 24.5882 2.47655
RightFoot  -15.2303 -0.325064 -6.54282
RightToes  -1.74624e-010 0 -3.6325e-017
Spine  1.70213 -1.94519 2.60331
Spine1  2.06068 -1.61678 -1.51674
HEad  -19.0434 -33.6547 4.79415
LeftShoulder1  -0.256938 4.18712 -31.3766
LeftArm  -7.17826 24.3871 -37.4695
LeftForeArm  37.0457 -7.29077 -6.80079
LeftHand  -0.0626238 8.12872 -0.77109
RightShoulder  -0.733371 -6.47683 17.7436
RightArm  -60.3944 19.1501 18.7716
RightForeArm  24.8439 58.0062 15.9235
RightHand  -1.06983 6.9752 -10.3138
LeftUpLeg  -13.9189 4.7504 8.45688
LeftLeg  3.36982 -17.095 1.89731
LeftFoot  2.96859 1.11682 -8.95816
LeftToes  2.27646e-009 -8.13696e-011 -1.44715e-011
768
root  -8.19922 38.9746 -0.48412 -1.24243 52.5452 -0.310272
RightUpLeg  4.38346 9.7202 -0.292586
RightLeg  17.6834 20.4211 2.42813
RightFoot  -17.5109 -0.426489 -5.72776
RightToes  -1.74624e-010 0 -3.6325e-017
Spine  1.67232 -1.96798 3.0744
Spine1  2.0674 -1.36709 -2.90675
HEad  -19.2162 -33.1958 5.67282
LeftShoulder1  -0.123385 3.84299 -30.3503
LeftArm  -7.35485 22.5707 -38.1798
LeftForeArm  36.259 -9.11732 -6.59436
LeftHand  -0.057043 7.24053 -0.995973
RightShoulder  -0.706959 -6.66614 15.32
RightArm  -68.5015 22.4956 15.0989
RightForeArm  17.4676 58.2086 16.7989
RightHand  -1.50485 9.1912 -12.3212
LeftUpLeg  -14.5265 3.3617 8.88269
LeftLeg  6.78731 -14.2611 0.751976
LeftFoot  4.97439 1.39842 -9.95931
LeftToes  2.27646e-009 -8.13696e-011 -1.44715e-011
769
root  -7.18128 38.8307 -0.553076 -0.912811 49.6079 0.709839
RightUpLeg  5.57466 19.7041 -0.686486
RightLeg  18.5104 13.2649 2.73474
RightFoot  -19.2227 -0.426307 -4.30284
RightToes  -1.74624e-010 0 -3.6325e-017
Spine  2.45454 -1.79829 1.91611
Spine1  1.84103 -1.07688 -3.58218
HEad  -19.2268 -32.214 5.99886
LeftShoulder1  -0.101043 3.77971 -30.4937
LeftArm  -5.36207 20.4436 -37.6868
LeftForeArm  32.5591 -11.5653 -6.61227
LeftHand  -0.0340843 7.16553 0.361713
RightShoulder  -0.652573 -6.78462 12.5481
RightArm  -72.5864 25.3746 11.7076
RightForeArm  17.4544 60.0749 18.3214
RightHand  -1.55462 8.56919 -13.2018
LeftUpLeg  -14.7993 2.43006 8.5244
LeftLeg  12.2827 -10.3576 -1.27659
LeftFoot  3.5889 0.909005 -7.08544
LeftToes  2.27646e-009 -8.13696e-011 -1.44715e-011
770
root  -6.24367 38.7419 -0.615615 0.37149 46.3823 2.92203
RightUpLeg  5.16529 26.2914 -2.67395
RightLeg  21.6279 9.01449 3.92821
RightFoot  -20.2511 -0.320216 -2.357
RightToes  -1.74624e-010 0 -3.6325e-017
Spine  3.89427 -1.72284 -0.115214
Spine1  0.416012 -0.902072 -4.59393
HEad  -18.463 -30.8626 6.04701
LeftShoulder1  -0.117458 3.8239 -30.5124
LeftArm  -2.3358 18.7516 -36.4212
LeftForeArm  27.9977 -14.7259 -6.0698
LeftHand  -0.0178741 6.6576 1.45229
RightShoulder  -0.500031 -6.32857 10.2714
RightArm  -71.451 26.2577 9.36803
RightForeArm  24.6723 65.2023 22.5728
RightHand  -1.28673 7.55622 -11.8625
LeftUpLeg  -14.2215 2.70636 6.74874
LeftLeg  15.6863 -7.48728 -1.84498
LeftFoot  1.09421 0.59345 -5.50985
LeftToes  2.27646e-009 -8.13696e-011 -1.44715e-011
771
root  -5.35542 38.7206 -0.676206 1.64618 43.7727 4.48218
RightUpLeg  2.70264 24.4461 -5.9293
RightLeg  26.3731 10.2428 5.28131
RightFoot  -19.8589 -0.0473107 1.21926
RightToes  -1.74624e-010 0 -3.6325e-017
Spine  4.1221 -1.95262 -1.10441
Spine1  -0.104859 -0.911039 -6.71175
HEad  -17.657 -29.3887 6.12978
LeftShoulder1  -0.00458472 3.51671 -29.6403
LeftArm  -1.23105 17.2181 -36.0136
LeftForeArm  24.6098 -17.8015 -4.93173
LeftHand  -0.0151248 6.60397 1.85647
RightShoulder  -0.441124 -6.28536 8.15405
RightArm  -65.7038 26.4847 5.98495
RightForeArm  34.3056 70.9689 30.7881
RightHand  -1.36499 8.67506 -11.5865
LeftUpLeg  -13.821 3.7386 4.69917
LeftLeg  17.5324 -5.82141 -1.65621
LeftFoot  -0.544249 0.383104 -4.03496
LeftToes  2.27646e-009 -8.13696e-011 -1.44715e-011
772
root  -4.5155 38.7494 -0.740207 2.04312 40.6747 5.04782
RightUpLeg  -0.480005 21.1931 -8.73698
RightLeg  31.7027 10.7225 6.83568
RightFoot  -17.8381 0.196728 5.75985
RightToes  -1.74624e-010 0 -3.6325e-017
Spine  4.26489 -1.81127 -1.03407
Spine1  -0.436636 -0.558398 -8.79943
HEad  -17.7443 -28.8334 6.73745
LeftShoulder1  0.119531 3.15953 -28.6729
LeftArm  -2.70527 15.9211 -36.1669
LeftForeArm  23.186 -20.885 -3.96598
LeftHand  -0.00322819 6.47785 2.983
RightShoulder  -0.306334 -5.82595 5.23671
RightArm  -59.6233 25.4929 2.26546
RightForeArm  57.5328 77.2729 50.2503
RightHand  -1.31093 7.99766 -11.645
LeftUpLeg  -13.0177 4.47272 3.33245
LeftLeg  18.7037 -3.39573 -0.898439
LeftFoot  -2.16677 0.291109 -3.46462
LeftToes  2.27646e-009 -8.13696e-011 -1.44715e-011
773
root  -3.74442 38.8352 -0.778943 1.81223 37.7145 5.13388
RightUpLeg  -3.41115 17.4856 -10.3227
RightLeg  36.5531 8.96997 6.79767
RightFoot  -14.5696 0.157699 8.65372
RightToes  -1.74624e-010 0 -3.6325e-017
Spine  5.10536 -1.59914 -0.763423
Spine1  -1.3958 -0.232224 -10.3344
HEad  -17.6012 -28.1051 6.04507
LeftShoulder1  0.239808 2.79033 -27.4034
LeftArm  -4.8803 15.1422 -36.1251
LeftForeArm  23.9088 -24.4769 -3.91573
LeftHand  -0.0136977 6.22416 2.50609
RightShoulder  -0.201151 -5.34352 2.70314
RightArm  -54.9237 24.3989 -2.43708
RightForeArm  101.34 80.6524 86.0349
RightHand  -1.14355 8.26686 -10.0128
LeftUpLeg  -11.5439 5.66217 2.35145
LeftLeg  18.8667 -1.64188 -0.257947
LeftFoot  -3.28053 0.202382 -2.59418
LeftToes  2.27646e-009 -8.13696e-011 -1.44715e-011
774
root  -3.04715 38.9472 -0.791349 1.55032 35.7086 4.89563
RightUpLeg  -5.81419 13.6479 -10.6018
RightLeg  39.936 5.49783 4.66293
RightFoot  -12.089 -0.0354459 7.40302
RightToes  -1.74624e-010 0 -3.6325e-017
Spine  5.04885 -1.64583 -0.720823
Spine1  -1.21748 -0.204425 -10.8025
HEad  -17.3855 -27.0408 6.15254
LeftShoulder1  0.292898 2.60263 -26.3138
LeftArm  -7.58059 13.9398 -35.9963
LeftForeArm  25.7175 -28.198 -4.693
LeftHand  -0.0224926 5.51414 3.25228
RightShoulder  -0.135445 -5.04961 0.442623
RightArm  -53.6338 24.228 -7.05699
RightForeArm  127.32 81.0108 100.669
RightHand  -1.57764 14.1968 -9.95295
LeftUpLeg  -10.3212 6.19942 1.73373
LeftLeg  18.6443 -0.233757 0.228528
LeftFoot  -3.90742 0.135812 -1.73318
LeftToes  2.27646e-009 -8.13696e-011 -1.44715e-011
775
root  -2.40976 39.1059 -0.772197 0.963257 34.6245 4.17218
RightUpLeg  -6.80875 9.71059 -9.81256
RightLeg  40.3145 3.17425 2.62314
RightFoot  -12.0465 -0.0396066 6.82635
RightToes  -1.74624e-010 0 -3.6325e-017
Spine  5.4466 -1.76026 -0.463735
Spine1  -1.62177 -0.317322 -10.6898
HEad  -16.9406 -26.9403 6.12556
LeftShoulder1  0.365776 2.34366 -25.3015
LeftArm  -9.58643 12.7322 -35.8378
LeftForeArm  27.3368 -31.8658 -5.45696
LeftHand  -0.0332711 5.09998 3.58488
RightShoulder  -0.130011 -5.5988 -2.51942
RightArm  -55.5237 23.5218 -8.12693
RightForeArm  108.728 81.062 74.9963
RightHand  -2.28389 23.2749 -9.56481
LeftUpLeg  -8.98765 6.43381 1.60331
LeftLeg  17.9444 0.718034 0.548984
LeftFoot  -4.18331 0.0915345 -1.06519
LeftToes  2.27646e-009 -8.13696e-011 -1.44715e-011
776
root  -1.88108 39.2373 -0.725297 0.543579 34.1151 3.31552
RightUpLeg  -7.18074 6.67579 -8.38969
RightLeg  37.9578 2.25256 1.61635
RightFoot  -12.7435 3.98994e-005 7.11451
RightToes  -1.74624e-010 0 -3.6325e-017
Spine  5.80173 -1.74026 0.261535
Spine1  -2.17189 -0.156197 -11.2864
HEad  -16.827 -27.5452 7.82385
LeftShoulder1  0.394522 2.22342 -24.5342
LeftArm  -10.9114 10.4972 -35.7318
LeftForeArm  28.4496 -34.5766 -6.06892
LeftHand  -0.0366097 5.01262 4.46609
RightShoulder  -0.133578 -6.46458 -4.44366
RightArm  -61.9564 22.6101 -7.74434
RightForeArm  70.2038 75.5292 36.7864
RightHand  -2.22103 20.9687 -10.1725
LeftUpLeg  -8.19451 6.01488 1.69166
LeftLeg  17.4468 1.51717 0.869079
LeftFoot  -4.26334 0.0481481 -0.372781
LeftToes  2.27646e-009 -8.13696e-011 -1.44715e-011
777
root  -1.46077 39.3765 -0.682294 0.231659 33.6185 2.4491
RightUpLeg  -7.28323 5.13346 -6.6077
RightLeg  33.689 2.01742 1.20716
RightFoot  -13.9313 0.0492126 6.38249
RightToes  -1.74624e-010 0 -3.6325e-017
Spine  6.11042 -1.52646 0.560507
Spine1  -2.64244 0.0836155 -11.1197
HEad  -16.6776 -29.088 8.8095
LeftShoulder1  0.369861 2.28731 -24.1426
LeftArm  -11.8508 7.583 -36.215
LeftForeArm  29.8371 -36.0664 -6.37677
LeftHand  -0.0467541 4.64191 3.93647
RightShoulder  -0.131891 -7.36001 -5.73493
RightArm  -73.2856 24.8283 -7.17822
RightForeArm  46.3041 62.9852 17.5475
RightHand  -1.69215 15.1334 -9.99899
LeftUpLeg  -7.45502 6.10772 1.96483
LeftLeg  16.6365 1.8639 0.964082
LeftFoot  -4.29595 0.0317643 -0.0829989
LeftToes  2.27646e-009 -8.13696e-011 -1.44715e-011
